<svg width="16" height="16" viewBox="0 0 16 16" fill="none" xmlns="http://www.w3.org/2000/svg">
<path d="M3.32195 4.79795C4.12755 4.79795 4.78061 4.14488 4.78061 3.33928C4.78061 2.53368 4.12755 1.88062 3.32195 1.88062C2.51635 1.88062 1.86328 2.53368 1.86328 3.33928C1.86328 4.14488 2.51635 4.79795 3.32195 4.79795Z" fill="#F3F3F2"/>
<path d="M6.15795 5.90328V13.9959H8.67061V9.99395C8.67061 8.93795 8.86928 7.91528 10.1786 7.91528C11.4699 7.91528 11.4859 9.12262 11.4859 10.0606V13.9966H13.9999V9.55862C13.9999 7.37862 13.5306 5.70328 10.9826 5.70328C9.75928 5.70328 8.93928 6.37462 8.60395 7.00995H8.56995V5.90328H6.15795ZM2.06328 5.90328H4.57995V13.9959H2.06328V5.90328Z" fill="#F3F3F2"/>
</svg>
