<svg width="16" height="16" viewBox="0 0 16 16" fill="none" xmlns="http://www.w3.org/2000/svg">
<path d="M3.32199 4.79801C4.12759 4.79801 4.78066 4.14494 4.78066 3.33934C4.78066 2.53374 4.12759 1.88068 3.32199 1.88068C2.51639 1.88068 1.86333 2.53374 1.86333 3.33934C1.86333 4.14494 2.51639 4.79801 3.32199 4.79801Z" fill="#22262F"/>
<path d="M6.15799 5.90334V13.996H8.67066V9.99401C8.67066 8.93801 8.86933 7.91534 10.1787 7.91534C11.47 7.91534 11.486 9.12268 11.486 10.0607V13.9967H14V9.55868C14 7.37868 13.5307 5.70334 10.9827 5.70334C9.75933 5.70334 8.93933 6.37468 8.60399 7.01001H8.56999V5.90334H6.15799ZM2.06333 5.90334H4.57999V13.996H2.06333V5.90334Z" fill="#22262F"/>
</svg>
