<svg width="16" height="16" viewBox="0 0 16 16" fill="none" xmlns="http://www.w3.org/2000/svg">
<g clip-path="url(#clip0_0_136)">
<path d="M2.66667 13.3334C2.3 13.3334 1.98611 13.2028 1.725 12.9417C1.46389 12.6806 1.33334 12.3667 1.33334 12V4.00002C1.33334 3.63335 1.46389 3.31946 1.725 3.05835C1.98611 2.79724 2.3 2.66669 2.66667 2.66669H13.3333C13.7 2.66669 14.0139 2.79724 14.275 3.05835C14.5361 3.31946 14.6667 3.63335 14.6667 4.00002V12C14.6667 12.3667 14.5361 12.6806 14.275 12.9417C14.0139 13.2028 13.7 13.3334 13.3333 13.3334H2.66667ZM8 8.66669L2.66667 5.33335V12H13.3333V5.33335L8 8.66669ZM8 7.33335L13.3333 4.00002H2.66667L8 7.33335ZM2.66667 5.33335V4.00002V12V5.33335Z" fill="#22262F"/>
</g>
<defs>
<clipPath id="clip0_0_136">
<rect width="16" height="16" fill="white"/>
</clipPath>
</defs>
</svg>
